<svg fill="none" height="67" viewBox="0 0 145 67" width="145" xmlns="http://www.w3.org/2000/svg"><g fill="#fff"><path d="m108.381 33.6112c0 1.9514-.3 3.8239-.895 5.6174-.601 1.8008-1.467 3.3791-2.605 4.7494-1.139 1.3702-2.535 2.4607-4.181 3.2857-1.6469.8251-3.5154 1.234-5.6059 1.234-1.7182 0-3.3433-.3444-4.8753-1.0402-1.5321-.6959-2.7276-1.6358-3.5867-2.841h-.1146v16.5796h-9.1994v-41.4742h8.7484v3.4293h.1718c.8591-1.1263 2.0475-2.1092 3.5581-2.9486 1.5177-.8394 3.3003-1.2627 5.355-1.2627 2.0188 0 3.8516.3946 5.4986 1.1766 1.646.7892 3.035 1.8581 4.18 3.2069 1.139 1.3487 2.019 2.9127 2.635 4.6919.609 1.7864.916 3.6517.916 5.5959zm-8.9127 0c0-.8968-.1432-1.7792-.4224-2.6401s-.6944-1.6214-1.2313-2.2742c-.5441-.6529-1.2242-1.1909-2.0475-1.5999-.8233-.4089-1.7755-.617-2.8565-.617-1.0452 0-1.9831.2081-2.8064.617-.8233.409-1.5249.9542-2.1047 1.6286-.5799.6744-1.0309 1.442-1.3459 2.3029s-.4797 1.7433-.4797 2.6401.1575 1.7792.4797 2.6401c.315.8609.766 1.6286 1.3459 2.3029.5798.6744 1.2814 1.2197 2.1047 1.6286.8233.4161 1.754.617 2.8064.617 1.081 0 2.0403-.2081 2.8565-.617.8233-.4089 1.5034-.9542 2.0475-1.6286.544-.6743.9521-1.4491 1.2313-2.3316.2792-.8752.4224-1.7648.4224-2.6688z"/><path d="m124.146 26.5877v10.7183c0 1.3129.25 2.3029.758 2.9629.502.6601 1.411.9901 2.721.9901.451 0 .923-.0359 1.432-.1148.501-.0718.923-.1865 1.26-.3372l.114 6.7438c-.637.2224-1.439.4232-2.412.5882-.974.1722-1.948.2511-2.914.2511-1.869 0-3.444-.2367-4.711-.703-1.274-.4664-2.291-1.1479-3.057-2.0303-.766-.8825-1.317-1.9371-1.653-3.1567-.337-1.2196-.509-2.5827-.509-4.0821v-11.8303h-4.488v-6.8586h4.431v-7.3607h9.028v7.3607h6.557v6.8586z"/><path d="m145 10.7972c0 .7103-.143 1.3775-.422 1.9944-.279.617-.652 1.1551-1.124 1.5999-.466.452-1.031.8035-1.683 1.0689-.651.2655-1.338.3946-2.047.3946-1.496 0-2.749-.495-3.759-1.4922-1.009-.9901-1.517-2.181-1.517-3.5656 0-.6744.128-1.32005.393-1.93703.258-.61698.638-1.15505 1.124-1.59985.487-.45198 1.046-.81786 1.683-1.09766.637-.27979 1.324-.42328 2.076-.42328.709 0 1.389.12914 2.047.39458.652.26545 1.217.61698 1.683 1.06896.465.45198.837.98287 1.124 1.59985.286.61699.422 1.28423.422 1.99443zm-9.865 36.9185v-27.9866h9.192v27.9866z"/><path d="m52.7839 34.5438c0-.7174 0-1.3774 0-2.0446 1.0667.2295 2.0046.0071 2.6489-.947.5512-.8179.5799-1.7075.0572-2.5469-.6586-1.0618-1.6609-1.2842-2.8063-1.0187.0501-.4018.1432-.782.136-1.1551-.0071-.3658-.1217-.7389-.1933-1.112 1.8399.2009 2.9424-.495 3.0569-1.9083.1003-1.2125-.8089-2.2958-2.0045-2.389-.6157-.0502-1.1669.1291-1.6251.538-.7875.6888-.8734 1.5855-.6443 2.511-.6085-.0861-1.1598-.165-1.6681-.2367-.0429-.5524-.0787-1.1049-.1217-1.6573 1.2815.1076 2.1477-.2941 2.6202-1.2268.4296-.8465.3007-1.8581-.3293-2.5683-.7374-.8322-1.6466-.947-3.1428-.3731.6371-1.1192.6157-2.1594-.2935-3.0777-.673-.6744-1.6968-.8394-2.5415-.409-1.0882.5453-1.4533 1.4851-1.2887 2.6401-.5512-.043-1.0881-.086-1.6036-.1291-.0716-.5237-.1432-1.0689-.2148-1.6142 1.575.3085 2.8064-.4376 2.9854-1.7935.1646-1.2986-.7517-2.4608-2.0046-2.5469-.6586-.043-1.2313.1363-1.711.5883-.7302.6815-.8018 1.5425-.6157 2.3531-.723 0-1.4175 0-2.1191 0 0-.0789-.0071-.1363 0-.1865.2148-1.0689-.1217-1.937-1.0094-2.5397-.9163-.6169-1.8613-.5595-2.7777.0574-.1074.0718-.2506.0789-.3794.122.5584-.4663.7875-1.234.6085-1.97291-.0287-.10762-.0573-.20806-.1002-.31567-.358-.8896-1.2457-1.42767-2.1836-1.3344-.9378.10044-1.7611.76046-1.8685 1.66441-.0644.55237.0716 1.12637.1146 1.65727-.8448-.5237-1.8041-.6027-2.7276.0502-.9379.6672-1.1598 1.6214-.9665 2.6042-.7374.0359-1.4318.0718-2.112.1077.1933-1.7434-.5584-2.8913-1.983-2.963-1.3316-.0646-2.3768.9326-2.3554 2.2599.0215 1.4922 1.1312 2.2527 3.0069 2.0948-.0716.5596-.1504 1.1192-.2148 1.6142-.5584.0503-1.0954.0933-1.6394.1364.1789-1.0977-.1289-2.0016-1.1169-2.5756-.8376-.4878-1.711-.4448-2.477.1435-1.1455.8896-1.1884 2.0375-.494 3.3217-1.2743-.6385-2.2121-.574-2.9996.1363-.6945.6313-.9665 1.6572-.5728 2.5109.1862.4018.494.7749.8305 1.0618.5441.4592 1.2314.4879 1.8828.3659-.0429.5955-.0787 1.1479-.1145 1.6716-.5727.0933-1.1598.1865-1.7254.2798.2721-1.399-.0429-2.2814-1.0094-2.8123-.8376-.4591-1.847-.3228-2.5486.33-.673.6385-.8734 1.6214-.5012 2.4823.2506.5668.6587 1.0187 1.2457 1.1622.5441.1292 1.124.0861 1.6466.122-.0573.2798-.1861.6528-.2076 1.0331-.0143.3874.0788.7748.1289 1.1694-1.6609-.287-2.9281.4806-3.1214 1.8724-.2219 1.6286.7589 2.5684 2.8207 2.7406v1.9801c-1.1813-.1579-2.0475.165-2.5701 1.0115-.5083.8251-.537 1.686-.0072 2.4967.6873 1.0689 1.711 1.2841 2.9424.9254-.358.8968-.2864 1.7219.136 2.5541-1.4533-.4018-2.341-.1579-2.9137.7604-.5012.7964-.4152 1.8581.2076 2.5612.6157.6959 1.6681.904 2.5128.495.5584-.2726.988-.703 1.0954-1.2985.093-.5524.0214-1.1335.0214-1.5927.5585.0861 1.2314.1866 1.9044.2942-.0144.2654-.0573.5811-.0358.8896.0286.3228.1217.6385.1933.9542-1.9044-.1507-2.9997.6241-3.0069 2.1235-.0071 1.3201 1.0453 2.3173 2.384 2.2384 1.4104-.0861 2.1621-1.2412 1.9616-2.963.5871.0646 1.1884.1292 1.7468.1865.0645.5668.1289 1.1623.1862 1.7434-1.8256-.1363-2.9066.5811-2.9711 2.0088-.0572 1.277.9236 2.3244 2.1836 2.3316.6156.0072 1.1526-.2152 1.5821-.6529.6658-.6743.7517-1.5066.5441-2.3029.6873.0502 1.3459.0933 1.9974.1435 0 .3228-.0501.6959.0143 1.0474.0644.3587.2291.7031.358 1.0762-1.2457-.5309-2.2551-.3301-2.8923.5524-.5871.8178-.5155 1.9514.1718 2.6903.673.7174 1.7755.8681 2.6202.3659.9808-.5883 1.2242-1.5568.7231-3.0706.8806.574 1.7683.617 2.7419.1794-.4224 1.1335-.272 2.059.537 2.7836.7159.6457 1.575.7891 2.4555.373 1.1741-.5595 1.5034-1.5639 1.2958-2.7118h2.1764c-.2721 1.0905-.0143 2.0662 1.0309 2.7047.809.495 1.6537.4663 2.4341-.079 1.0452-.7389 1.2027-1.7648.7803-2.9844 1.0023.4878 1.8972.373 2.8064-.1937-.5799 1.3272-.4009 2.3316.4868 2.9844.7803.5812 1.847.5453 2.5987-.0789.7446-.6241.9665-1.6716.5298-2.5468-.2864-.574-.7374-1.0188-1.3602-1.0905-.5727-.0646-1.1741.0646-1.6037.1004.1074-.5882.2435-1.3128.3723-2.0016.5584-.043 1.2314-.0932 1.89-.1363-.2577 1.6214.4725 2.8123 1.8471 2.9558 1.2886.1363 2.4197-.8179 2.4698-2.0877.0287-.6385-.1789-1.1981-.6156-1.6501-.6802-.703-1.5249-.7891-2.3625-.5739.0644-.617.1288-1.2124.1933-1.7649.5727-.0574 1.1669-.1219 1.7611-.1793-.2935 1.5568.4582 2.7979 1.8112 2.9558 1.3459.1578 2.4914-.8107 2.5272-2.138.0143-.66-.2148-1.2267-.6873-1.6787-.6729-.6457-1.4819-.7031-2.2694-.5166.0573-.6456.1074-1.277.1575-1.8509.6372-.1005 1.3029-.2081 1.9473-.3085-.3866 1.2698-.1217 2.2312.8089 2.8051.8162.5094 1.8972.4018 2.5916-.2583.7016-.66.9164-1.7505.4009-2.5683-.2434-.3803-.6228-.7246-1.0237-.947-.63-.3587-1.2958-.2368-2.0189.0717.4868-.8752.494-1.6859.222-2.5325 1.7969.287 3.0354-.4304 3.2287-1.8366.0931-.6672-.0358-1.277-.451-1.8222-.6372-.8251-1.5249-.9972-2.4556-.8753zm-6.1997 1.5568-13.8242 8.028v-7.5473l7.338-4.2687-11.0536-6.4281v20.3174l-6.4145-3.8884v-20.1452l6.4145-3.788 17.5398 10.0726z"/><path d="m56.7214 31.459c-1.1454-.0215-2.1119.9183-2.1191 2.0662-.0143 1.155.9307 2.1092 2.0762 2.1092 1.1454.0071 2.0976-.947 2.0904-2.0949-.0071-1.1263-.9235-2.0662-2.0475-2.0805z"/><path d="m8.46208 33.4391c0 1.1191.95215 2.0661 2.06902 2.0661 1.1168 0 2.0618-.9541 2.0618-2.0733s-.9522-2.0662-2.069-2.0662c-1.12398.0072-2.06898.9542-2.06182 2.0734z"/><path d="m40.2984 12.4616c1.1168.0072 2.069-.9398 2.069-2.0661 0-1.12639-.9522-2.07338-2.069-2.05904-1.1025.01435-2.0188.92548-2.0403 2.03744-.0287 1.112.9163 2.0734 2.0403 2.0877z"/><path d="m27.1401 12.3253c1.1168-.0144 2.0188-.9327 2.0117-2.0518-.0072-1.11921-.9164-2.03034-2.0332-2.03034-1.1383 0-2.0618.947-2.0404 2.08054.0287 1.1263.9522 2.0231 2.0619 2.0016z"/><path d="m56.8145 24.9375c-1.1097-.0071-1.9974.8538-2.0117 1.9586-.0143 1.1192.8376 2.0088 1.9401 2.0303 1.1168.0215 2.0117-.8322 2.0403-1.9299.0215-1.1407-.8447-2.0518-1.9687-2.059z"/><path d="m33.6404 54.7034c-1.1096-.0143-2.0045.8466-2.026 1.9442-.0215 1.1407.8519 2.0375 1.9831 2.0447 1.1096 0 1.9902-.8681 1.9974-1.9729.0071-1.112-.8591-2.0016-1.9545-2.016z"/><path d="m12.6142 26.8316c.0072-1.112-.8734-1.9944-1.9759-2.0016-1.10962-.0072-1.99019.8753-1.99019 1.9801-.00715 1.112.87341 1.9944 1.97589 2.0016 1.1025.0072 1.9902-.8753 1.9902-1.9801z"/><path d="m54.7169 40.0679c-.0573 1.0547.7875 1.9945 1.8542 2.0662 1.0738.0718 2.0331-.8107 2.0761-1.9011.043-1.0618-.8161-1.9873-1.8828-2.0375-1.0596-.0574-1.9903.7963-2.0475 1.8724z"/><path d="m10.4881 42.0051c1.0523.0287 1.9687-.8609 1.983-1.9299.0143-1.0618-.8734-1.9729-1.9401-1.9801-1.05954-.0071-1.96158.8968-1.95442 1.9586 0 1.0474.86625 1.9227 1.91152 1.9514z"/><path d="m40.2484 54.8039c-1.081-.0215-1.933.7963-1.9401 1.8653-.0072 1.0618.7875 1.894 1.8327 1.9227 1.081.0215 1.933-.7964 1.9401-1.8653.0143-1.0618-.7875-1.9012-1.8327-1.9227z"/><path d="m27.0327 54.6962c-1.0595-.0143-1.89.7964-1.9114 1.8366-.0215 1.0833.7946 1.9371 1.8613 1.9442 1.0596.0144 1.89-.7891 1.9115-1.8366.0215-1.0833-.7875-1.937-1.8614-1.9442z"/><path d="m50.1493 15.5465c.9951.0359 1.8757-.8107 1.89-1.8222.0143-.9829-.7946-1.8294-1.7898-1.8725-.9951-.0359-1.8756.8107-1.89 1.8223-.0214.99.7947 1.8366 1.7898 1.8724z"/><path d="m53.5213 18.8467c.9951-.0144 1.8112-.8538 1.8041-1.8438-.0072-.9972-.8376-1.8223-1.8256-1.8294-1.0094 0-1.8614.868-1.8327 1.8724.0215 1.0044.8662 1.8151 1.8542 1.8008z"/><path d="m17.2175 15.4317c.988.0072 1.8256-.8178 1.8399-1.8151.0143-.99-.7946-1.8294-1.7969-1.8581s-1.8685.8251-1.8685 1.8438c.0071.99.8376 1.8222 1.8255 1.8294z"/><path d="m13.9101 18.7247c.9951.0144 1.8256-.8035 1.8399-1.8079s-.8018-1.8294-1.8041-1.8437c-.9951-.0144-1.8256.8035-1.8399 1.8079-.0072 1.0044.8018 1.8294 1.8041 1.8437z"/><path d="m37.041 8.84574c.9521-.02153 1.7325-.82504 1.7182-1.77921s-.809-1.74333-1.7612-1.73616c-.9521.00718-1.7396.79634-1.7468 1.75051 0 .97569.8233 1.78638 1.7898 1.76486z"/><path d="m30.3831 8.72387c.9379.02153 1.7612-.77481 1.7755-1.72898.0143-.947-.7875-1.76486-1.7325-1.76486-.9235-.00717-1.7182.76764-1.7468 1.70029-.0358.93982.7517 1.77203 1.7038 1.79355z"/><path d="m20.5108 12.024c.945.0072 1.754-.8107 1.7468-1.7577-.0143-.93266-.7947-1.71465-1.7253-1.72182-.945-.00717-1.754.81069-1.7469 1.75772.0144.9326.8019 1.7146 1.7254 1.7218z"/><path d="m46.9135 12.1459c.9521-.0071 1.7468-.8107 1.7396-1.7648-.0072-.95419-.809-1.75053-1.754-1.74336-.9521.00718-1.7468.81069-1.7396 1.76486 0 .9542.8018 1.7505 1.754 1.7433z"/><path d="m53.3638 48.3685c-.9378.0143-1.7038.8035-1.6895 1.7361.0143.9399.8018 1.7147 1.7325 1.7003.9378-.0143 1.7038-.8035 1.6895-1.7361-.0143-.947-.7946-1.7147-1.7325-1.7003z"/><path d="m56.8001 22.0177c.9521-.0072 1.7038-.7748 1.6895-1.729s-.7875-1.7003-1.7325-1.6787c-.9307.0215-1.6609.7676-1.6609 1.7002 0 .9542.7589 1.7147 1.7039 1.7075z"/><path d="m13.8528 48.268c-.9235-.0215-1.6895.696-1.7325 1.6286-.0429.9542.6802 1.7433 1.6323 1.7792.945.0359 1.7325-.7031 1.7612-1.6501.0286-.9541-.7088-1.7361-1.661-1.7577z"/><path d="m17.1245 51.597c-.9378-.0072-1.6752.7174-1.6824 1.6572-.0143.947.7016 1.686 1.6394 1.7075.9665.0143 1.7182-.7174 1.7111-1.686 0-.9398-.7231-1.6715-1.6681-1.6787z"/><path d="m50.0849 51.7045c-.9378 0-1.668.7246-1.6824 1.6644-.0143.9614.7303 1.7147 1.6896 1.7147.9378 0 1.668-.7246 1.6824-1.6644.0143-.9614-.7303-1.7219-1.6896-1.7147z"/><path d="m10.6599 21.8957c.9378-.0143 1.6609-.7461 1.6609-1.6859 0-.9613-.7517-1.7075-1.711-1.6931-.93788.0143-1.66095.7461-1.66095 1.6859 0 .9614.75171 1.7075 1.71105 1.6931z"/><path d="m60.0933 28.582c-.9092 0-1.6395.7031-1.6609 1.6142-.0215.9399.6944 1.6931 1.6179 1.7075.9378.0143 1.6824-.7103 1.6895-1.6429.0144-.9398-.7087-1.6788-1.6465-1.6788z"/><path d="m7.29509 31.789c.93784.0143 1.68239-.7031 1.69671-1.6357.01432-.9398-.70875-1.6788-1.63943-1.686-.90921-.0071-1.64659.7031-1.66807 1.6071-.02863.9398.68727 1.7003 1.61079 1.7146z"/><path d="m60.0504 35.1967c-.9307-.0358-1.7039.6816-1.7253 1.607-.0215.9112.6801 1.6645 1.575 1.7003.9306.0359 1.7038-.6815 1.7253-1.607.0286-.9039-.673-1.6644-1.575-1.7003z"/><path d="m7.18051 38.3749c.88057.0287 1.66091-.7246 1.67522-1.6142.01432-.8681-.70874-1.6213-1.58215-1.65-.88057-.0287-1.66091.7246-1.67523 1.6142-.01431.868.70875 1.6213 1.58216 1.65z"/><path d="m56.6713 45.1545c-.8734.0072-1.6037.7533-1.6037 1.6214s.7374 1.6142 1.6037 1.6213c.8877.0072 1.6537-.7604 1.6322-1.65-.0215-.8753-.766-1.607-1.6322-1.5927z"/><path d="m10.4809 45.0683c-.86626.0216-1.55353.7318-1.55353 1.5999 0 .8896.72307 1.607 1.60363 1.5998.8877-.0071 1.5965-.7389 1.5822-1.6285-.0144-.8896-.7446-1.5999-1.6323-1.5712z"/><path d="m20.4248 55.0334c-.8806 0-1.5607.6816-1.5607 1.564 0 .8825.6873 1.5568 1.575 1.5497.852-.0072 1.5249-.6816 1.5321-1.5353.0071-.8896-.673-1.5784-1.5464-1.5784z"/><path d="m46.806 55.141c-.8806-.0071-1.5678.6744-1.5678 1.5568 0 .8825.6872 1.564 1.5678 1.5569.8806-.0072 1.5464-.6959 1.5392-1.5855-.0143-.8538-.6873-1.521-1.5392-1.5282z"/><path d="m30.2829 58.3479c-.852.0143-1.5178.6959-1.5178 1.5496 0 .8753.6945 1.564 1.575 1.5496.852-.0143 1.5178-.6959 1.5178-1.5496-.0072-.8753-.7016-1.564-1.575-1.5496z"/><path d="m36.905 58.4628c-.8663 0-1.5607.7102-1.5464 1.5783.0143.8466.7159 1.5209 1.5607 1.5138.8448-.0072 1.5249-.7031 1.5177-1.5497 0-.8537-.6801-1.5424-1.532-1.5424z"/><path d="m43.5774 8.61614c.809.01435 1.5177-.65286 1.5535-1.47072.0358-.83221-.6586-1.56398-1.4962-1.5855-.809-.01435-1.5177.65285-1.5535 1.47071-.0358.83221.6586 1.57116 1.4962 1.58551z"/><path d="m23.8111 8.48707c.809.00718 1.5106-.68155 1.5177-1.49941.0072-.81068-.6801-1.51376-1.4962-1.52093-.809-.00717-1.5106.68155-1.5177 1.49941-.0072.81069.6801 1.51376 1.4962 1.52093z"/><path d="m7.31659 24.959c.79466.0072 1.43182-.6026 1.45329-1.3989.02148-.8251-.60852-1.4779-1.41749-1.4851-.79466-.0072-1.43182.6026-1.4533 1.399-.02147.8178.60852 1.4779 1.4175 1.485z"/><path d="m60.0789 25.0667c.8162.0072 1.4533-.6313 1.4533-1.4564-.0071-.7963-.63-1.4204-1.4246-1.4276-.8162-.0072-1.4533.6313-1.4462 1.4563 0 .7964.6229 1.4205 1.4175 1.4277z"/><path d="m60.0289 42.0911c-.766-.0287-1.4103.5811-1.4246 1.3559-.0144.7461.5798 1.3703 1.3244 1.4061.766.0287 1.4103-.5811 1.4246-1.3559.0144-.7461-.5727-1.3774-1.3244-1.4061z"/><path d="m7.23782 42.0195c-.77318-.0072-1.35307.5811-1.34591 1.3559.00716.7461.57989 1.3201 1.32443 1.3272.77318.0072 1.35307-.5811 1.34591-1.3559-.00716-.7533-.57989-1.3201-1.32443-1.3272z"/><path d="m23.7037 58.5991c-.6944.0071-1.2958.6241-1.2815 1.32.0144.6816.5943 1.2627 1.2744 1.2698.6944.0144 1.3029-.5882 1.3101-1.2913 0-.6959-.6085-1.3057-1.303-1.2985z"/><path d="m43.5272 58.7138c-.6944-.0215-1.3101.574-1.3244 1.277-.0144.6959.587 1.3129 1.2814 1.3129.7016.0072 1.303-.6026 1.2958-1.2985 0-.6887-.5655-1.2699-1.2528-1.2914z"/><path d="m33.6978 5.04346c.6945.00717 1.26-.53807 1.2743-1.23397.0144-.71742-.5584-1.29853-1.2743-1.29136-.6944.00718-1.2457.56677-1.2457 1.26266 0 .6959.5513 1.25549 1.2457 1.26267z"/><path d="m40.3057 4.89286c.63 0 1.1097-.48067 1.1097-1.10483 0-.63133-.4797-1.112-1.1025-1.112-.6229 0-1.1097.48067-1.1097 1.10482-.0072.62416.4725 1.11201 1.1025 1.11201z"/><path d="m63.322 32.4131c-.63-.0215-1.1383.4304-1.1741 1.0618-.0358.66.4296 1.1837 1.081 1.2052.63.0216 1.1383-.4304 1.1741-1.0617.0358-.6601-.4367-1.1766-1.081-1.2053z"/><path d="m3.89454 32.3342c-.5942.0143-1.05955.5022-1.0667 1.0976-.00716.617.48681 1.112 1.10249 1.112.61569 0 1.1025-.5022 1.09534-1.1263-.00716-.617-.51545-1.0977-1.13113-1.0833z"/><path d="m53.4927 11.4931c.5871 0 1.0882-.495 1.0954-1.0833.0071-.58828-.4797-1.09765-1.0667-1.112-.5871-.01435-1.0954.46632-1.124 1.0546-.0215.6098.4868 1.1407 1.0953 1.1407z"/><path d="m27.0757 4.77797c.6156.02153 1.1239-.45915 1.1454-1.07613.0143-.61698-.4653-1.12635-1.081-1.13352-.6157-.00718-1.1168.48067-1.1168 1.09765-.0072.59546.4582 1.08331 1.0524 1.112z"/><path d="m56.7715 14.7932c.5799.0144 1.0882-.4878 1.1025-1.0689s-.4868-1.0905-1.0667-1.1049c-.5799-.0143-1.0882.4879-1.1025 1.069-.0072.5739.4868 1.0905 1.0667 1.1048z"/><path d="m13.9172 11.3711c.5799.0072 1.0882-.495 1.0953-1.0761.0072-.58111-.4939-1.09048-1.0738-1.09766-.5799-.00717-1.0882.49502-1.0954 1.07616-.0071.5811.494 1.0905 1.0739 1.0976z"/><path d="m10.5811 14.6641c.5728.0359 1.1097-.4663 1.124-1.0474.0143-.5596-.4582-1.0618-1.0166-1.0977-.5727-.0358-1.10963.4663-1.12395 1.0475-.02148.5595.45105 1.0689 1.01655 1.0976z"/><path d="m63.3865 27.9364c.5728 0 1.0023-.4377 1.0023-1.0116s-.4367-1.0044-1.0023-1.0044c-.5727 0-1.0022.4376-1.0022 1.0116 0 .5739.4367 1.0115 1.0022 1.0044z"/><path d="m63.2934 39.1855c-.5226-.0143-.9808.4376-.9951.9614-.0143.5237.4367.99.9593.9972.5226.0143.9808-.4376.9951-.9614.0144-.5237-.4295-.99-.9593-.9972z"/><path d="m4.04488 25.8271c-.55841 0-1.00227.4449-.99511 1.0044.00716.5596.45818.9973 1.01659.9901.55841-.0144.98795-.4735.97363-1.0331-.02863-.5381-.45818-.9614-.99511-.9614z"/><path d="m33.6263 62.3368c-.5226-.0144-.988.4304-1.0023.9541-.0143.5238.4224.9901.9522 1.0044.5226.0144.9879-.4304 1.0022-.9541.0143-.5238-.4224-.9901-.9521-1.0044z"/><path d="m50.1279 8.04949c.5154.04305 1.0094-.39458 1.0309-.92547.0286-.49502-.3866-.96135-.8949-1.00439-.5155-.04305-1.0094.39458-1.0309.92547-.0215.50219.3937.96852.8949 1.00439z"/><path d="m17.2104 7.92753c.5083.00717.9522-.42328.9593-.93265.0072-.50937-.4223-.95417-.9306-.96134-.5083-.00718-.9522.42327-.9593.93264-.0072.50937.4223.95417.9306.96135z"/><path d="m60.0289 17.914c.5154.0287.9235-.33.9593-.8322.0358-.5381-.3436-.9613-.8662-.9757-.5155-.0143-.9093.3516-.9307.8609-.0287.5166.3365.9183.8376.947z"/><path d="m3.93749 39.1281c-.52977-.0071-.93784.409-.93068.9399s.4367.9326.96647.9039c.50114-.0215.88773-.4376.87341-.9398-.00716-.5094-.40091-.8968-.9092-.904z"/><path d="m7.30951 17.7921c.51545.0144.9092-.3659.91636-.8824.00716-.5166-.37943-.904-.88773-.904-.51545 0-.89488.3946-.88772.904 0 .495.37227.8681.85909.8824z"/><path d="m56.7214 52.501c-.5155-.0215-.9164.3587-.9307.8681-.0143.5165.3651.9111.8805.9183.494.0071.8734-.3516.9021-.8394.0215-.5166-.3437-.9327-.8519-.947z"/><path d="m10.5095 52.4005c-.4796.0072-.85906.3874-.86622.8681-.00716.5022.39372.9039.89492.8967.5011-.0071.8877-.4232.8662-.9254-.0215-.4807-.4152-.8466-.8949-.8394z"/><path d="m13.8241 55.715c-.4725 0-.8734.4017-.8734.8752s.4009.8753.8662.8753c.4725 0 .8734-.4018.8734-.8753s-.4009-.8752-.8662-.8752z"/><path d="m53.3996 55.8225c-.4654-.0072-.8734.3874-.8806.8609-.0071.4735.3866.8824.8591.8896.4653.0072.8734-.3874.8806-.8609.0071-.4735-.3938-.8824-.8591-.8896z"/><path d="m26.9898 62.344c-.4439.0072-.8376.4089-.8376.8537-.0072.4663.4152.8824.8734.8681.4439-.0072.8376-.4089.8448-.8537 0-.4664-.4153-.8825-.8806-.8681z"/><path d="m40.2125 62.4731c-.451-.0072-.8448.3803-.8519.8251-.0072.4519.3794.8465.8233.8537.451.0072.8447-.3802.8519-.8251.0072-.4448-.3723-.8465-.8233-.8537z"/><path d="m60.0002 49.3155c-.4152-.0144-.7732.33-.7875.7461s.3293.782.7446.7892c.4152.0143.7731-.33.7875-.7461.0143-.4233-.3294-.782-.7446-.7892z"/><path d="m7.26645 49.2152c-.40807-.0216-.7875.3371-.79466.7461-.00716.3874.32932.7461.71591.7676.40807.0215.7875-.3372.79466-.7461.00716-.3874-.32932-.7461-.71591-.7676z"/><path d="m50.1135 59.2949c-.3866-.0143-.7015.2727-.7302.6601-.0286.4089.2792.7604.6801.7604.4224 0 .6801-.2295.7302-.6528.043-.4089-.272-.7533-.6801-.7677z"/><path d="m17.1173 59.1874c-.408 0-.7373.33-.7087.7389.0286.4233.2792.6672.7016.6816.4081.0143.7231-.3229.7087-.7318-.0071-.3946-.315-.6887-.7016-.6887z"/><path d="m21.1408 62.8677c-.4081 0-.7374.33-.7088.7389.0287.4233.2792.6672.7016.6816.4081.0143.7231-.3229.7088-.7318-.0072-.3874-.315-.6887-.7016-.6887z"/><path d="m46.9135 4.46958c.3937-.00718.6801-.31567.6729-.71025-.0143-.39458-.3293-.68872-.723-.65285-.4081.03587-.63.27262-.6372.68155-.0143.39458.2864.68872.6873.68155z"/><path d="m20.432 4.3405c.4438.01434.7517-.25828.7588-.63134.0072-.40893-.2076-.66002-.6156-.70307-.3938-.04304-.7159.26545-.7159.66003.0071.4161.2434.62416.5727.67438z"/><path d="m23.983.66722c.1739 0 .315-.141329.315-.315666s-.1411-.3156653-.315-.3156653c-.174 0-.315.1413283-.315.3156653s.141.315666.315.315666z"/><path d="m30.3974 1.23393c.315 0 .5728-.258268.5728-.573933 0-.315666-.2578-.5739374-.5728-.5739374s-.5727.2582714-.5727.5739374c0 .315665.2577.573933.5727.573933z"/><path d="m36.9981 1.14787c.3164 0 .5728-.256956.5728-.573933s-.2564-.573937-.5728-.573937c-.3163 0-.5727.25696-.5727.573937s.2564.573933.5727.573933z"/><path d="m43.6131.660018c.1718 0 .315-.143485.315-.315666s-.1432-.3156655-.315-.3156655-.315.1434845-.315.3156655.1432.315666.315.315666z"/><path d="m.966489 36.8037c-.171818 0-.315.1435-.315.3157s.143182.3156.315.3156c.171821 0 .315001-.1434.315001-.3156s-.13602-.3157-.315001-.3157z"/><path d="m3.90879 21.3361c.315 0 .57272-.2583.57272-.5739 0-.3157-.25772-.574-.57272-.574s-.57273.2583-.57273.574c0 .3156.25773.5739.57273.5739z"/><path d="m.315 30.0098c-.171818 0-.315.1434-.315.3156s.143182.3157.315.3157c.171817 0 .314999-.1435.314999-.3157s-.143182-.3156-.314999-.3156z"/><path d="m3.25738 45.4845c.17397 0 .315-.1413.315-.3157 0-.1743-.14103-.3157-.315-.3157s-.315.1414-.315.3157c0 .1744.14103.3157.315.3157z"/><path d="m30.2399 66.9139c.174 0 .315-.1413.315-.3156 0-.1744-.141-.3157-.315-.3157-.1739 0-.315.1413-.315.3157 0 .1743.1411.3156.315.3156z"/><path d="m36.855 66.3687c-.1718 0-.315.1434-.315.3156s.1432.3157.315.3157c.1719 0 .315-.1435.315-.3157s-.1431-.3156-.315-.3156z"/><path d="m46.0328 62.4802c-.3866 0-.6944.3157-.6944.6959 0 .3874.315.6959.6944.6959.3866 0 .6944-.3156.6944-.6959 0-.3802-.3078-.6959-.6944-.6959z"/><path d="m63.0214 46.1086c-.358 0-.6443.2942-.6443.6457 0 .3587.2935.6457.6443.6457.3579 0 .6443-.2941.6443-.6457.0072-.3587-.2864-.6457-.6443-.6457z"/><path d="m63.2218 21.2285c.358 0 .6444-.2942.6444-.6457 0-.3587-.2936-.6457-.6444-.6457-.3579 0-.6443.2942-.6443.6457-.0071.3515.2864.6457.6443.6457z"/><path d="m66.3862 36.5526c-.1718 0-.315.1435-.315.3157s.1432.3156.315.3156.315-.1434.315-.3156-.1361-.3157-.315-.3157z"/><path d="m66.3503 31.3226c.1718 0 .315-.1435.315-.3156 0-.1722-.1432-.3157-.315-.3157s-.315.1435-.315.3157c0 .1721.136.3156.315.3156z"/></g></svg>